<mxfile host="app.diagrams.net" modified="2023-07-31T10:48:50.663Z" agent="Mozilla/5.0 (Macintosh; Intel Mac OS X 10_15_7) AppleWebKit/605.1.15 (KHTML, like Gecko) Version/16.4.1 Safari/605.1.15" etag="3EroqQDT5KXLRTj30sVN" version="21.6.6" type="github" pages="2">
  <diagram name="第 1 页" id="D5cP4E5BOM-z8qpolj9j">
    <mxGraphModel dx="4197" dy="552" grid="1" gridSize="10" guides="1" tooltips="1" connect="1" arrows="1" fold="1" page="1" pageScale="1" pageWidth="3300" pageHeight="4681" math="0" shadow="0">
      <root>
        <mxCell id="0" />
        <mxCell id="1" parent="0" />
        <mxCell id="1qQs1o9X_GctpXbG_s6m-1" value="接口请求A&lt;br&gt;(getMyHomepageInfo" style="rounded=0;whiteSpace=wrap;html=1;" vertex="1" parent="1">
          <mxGeometry y="360" width="120" height="60" as="geometry" />
        </mxCell>
        <mxCell id="1qQs1o9X_GctpXbG_s6m-2" value="&lt;p style=&quot;margin: 0px; font-style: normal; font-variant-caps: normal; font-stretch: normal; font-size: 14px; line-height: normal; font-family: Menlo; font-size-adjust: none; font-kerning: auto; font-variant-alternates: normal; font-variant-ligatures: normal; font-variant-numeric: normal; font-variant-east-asian: normal; font-variant-position: normal; font-feature-settings: normal; font-optical-sizing: auto; font-variation-settings: normal; color: rgb(15, 104, 160); background-color: rgb(255, 255, 255);&quot;&gt;rpcRequest&lt;/p&gt;&lt;p style=&quot;margin: 0px; font-style: normal; font-variant-caps: normal; font-stretch: normal; font-size: 14px; line-height: normal; font-family: Menlo; font-size-adjust: none; font-kerning: auto; font-variant-alternates: normal; font-variant-ligatures: normal; font-variant-numeric: normal; font-variant-east-asian: normal; font-variant-position: normal; font-feature-settings: normal; font-optical-sizing: auto; font-variation-settings: normal; color: rgb(15, 104, 160); background-color: rgb(255, 255, 255);&quot;&gt;请求基类&lt;/p&gt;" style="rounded=0;whiteSpace=wrap;html=1;" vertex="1" parent="1">
          <mxGeometry x="200" y="360" width="120" height="60" as="geometry" />
        </mxCell>
        <mxCell id="1qQs1o9X_GctpXbG_s6m-3" value="" style="endArrow=classic;html=1;rounded=0;exitX=1;exitY=0.5;exitDx=0;exitDy=0;" edge="1" parent="1" source="1qQs1o9X_GctpXbG_s6m-1" target="1qQs1o9X_GctpXbG_s6m-2">
          <mxGeometry width="50" height="50" relative="1" as="geometry">
            <mxPoint x="300" y="390" as="sourcePoint" />
            <mxPoint x="350" y="340" as="targetPoint" />
          </mxGeometry>
        </mxCell>
        <mxCell id="1qQs1o9X_GctpXbG_s6m-4" value="是否发送" style="rhombus;whiteSpace=wrap;html=1;" vertex="1" parent="1">
          <mxGeometry x="414" y="350" width="80" height="80" as="geometry" />
        </mxCell>
        <mxCell id="1qQs1o9X_GctpXbG_s6m-5" value="" style="endArrow=classic;html=1;rounded=0;exitX=1;exitY=0.5;exitDx=0;exitDy=0;entryX=0;entryY=0.5;entryDx=0;entryDy=0;" edge="1" parent="1" source="1qQs1o9X_GctpXbG_s6m-2" target="1qQs1o9X_GctpXbG_s6m-4">
          <mxGeometry width="50" height="50" relative="1" as="geometry">
            <mxPoint x="450" y="400" as="sourcePoint" />
            <mxPoint x="500" y="350" as="targetPoint" />
          </mxGeometry>
        </mxCell>
        <mxCell id="1qQs1o9X_GctpXbG_s6m-6" value="rpc拦截器" style="rounded=0;whiteSpace=wrap;html=1;" vertex="1" parent="1">
          <mxGeometry x="570" y="360" width="120" height="60" as="geometry" />
        </mxCell>
        <mxCell id="1qQs1o9X_GctpXbG_s6m-10" value="" style="endArrow=classic;html=1;rounded=0;exitX=1;exitY=0.5;exitDx=0;exitDy=0;entryX=0;entryY=0.5;entryDx=0;entryDy=0;" edge="1" parent="1" source="1qQs1o9X_GctpXbG_s6m-4" target="1qQs1o9X_GctpXbG_s6m-6">
          <mxGeometry width="50" height="50" relative="1" as="geometry">
            <mxPoint x="560" y="410" as="sourcePoint" />
            <mxPoint x="610" y="360" as="targetPoint" />
          </mxGeometry>
        </mxCell>
        <mxCell id="1qQs1o9X_GctpXbG_s6m-68" value="是" style="edgeLabel;html=1;align=center;verticalAlign=middle;resizable=0;points=[];" vertex="1" connectable="0" parent="1qQs1o9X_GctpXbG_s6m-10">
          <mxGeometry x="-0.1316" relative="1" as="geometry">
            <mxPoint as="offset" />
          </mxGeometry>
        </mxCell>
        <mxCell id="1qQs1o9X_GctpXbG_s6m-66" value="服务器" style="rounded=0;whiteSpace=wrap;html=1;" vertex="1" parent="1">
          <mxGeometry x="880" y="160" width="120" height="880" as="geometry" />
        </mxCell>
        <mxCell id="1qQs1o9X_GctpXbG_s6m-67" value="" style="endArrow=classic;html=1;rounded=0;exitX=1;exitY=0.5;exitDx=0;exitDy=0;entryX=-0.017;entryY=0.264;entryDx=0;entryDy=0;entryPerimeter=0;" edge="1" parent="1" source="1qQs1o9X_GctpXbG_s6m-6" target="1qQs1o9X_GctpXbG_s6m-66">
          <mxGeometry width="50" height="50" relative="1" as="geometry">
            <mxPoint x="670" y="420" as="sourcePoint" />
            <mxPoint x="720" y="370" as="targetPoint" />
          </mxGeometry>
        </mxCell>
        <mxCell id="1qQs1o9X_GctpXbG_s6m-69" value="常驻线程接管监听" style="whiteSpace=wrap;html=1;" vertex="1" parent="1">
          <mxGeometry x="394" y="480" width="120" height="60" as="geometry" />
        </mxCell>
        <mxCell id="1qQs1o9X_GctpXbG_s6m-70" value="" style="endArrow=classic;html=1;rounded=0;exitX=0.5;exitY=1;exitDx=0;exitDy=0;entryX=0.5;entryY=0;entryDx=0;entryDy=0;" edge="1" parent="1" source="1qQs1o9X_GctpXbG_s6m-4" target="1qQs1o9X_GctpXbG_s6m-69">
          <mxGeometry width="50" height="50" relative="1" as="geometry">
            <mxPoint x="420" y="510" as="sourcePoint" />
            <mxPoint x="470" y="460" as="targetPoint" />
          </mxGeometry>
        </mxCell>
        <mxCell id="1qQs1o9X_GctpXbG_s6m-72" value="平均分布懒加载&lt;br&gt;产生【1-10】随机数" style="rounded=0;whiteSpace=wrap;html=1;" vertex="1" parent="1">
          <mxGeometry x="394" y="710" width="120" height="60" as="geometry" />
        </mxCell>
        <mxCell id="1qQs1o9X_GctpXbG_s6m-74" value="延时1s发送" style="rounded=0;whiteSpace=wrap;html=1;" vertex="1" parent="1">
          <mxGeometry x="-10" y="861" width="120" height="60" as="geometry" />
        </mxCell>
        <mxCell id="1qQs1o9X_GctpXbG_s6m-75" value="延时2s发送" style="rounded=0;whiteSpace=wrap;html=1;" vertex="1" parent="1">
          <mxGeometry x="150" y="858" width="120" height="60" as="geometry" />
        </mxCell>
        <mxCell id="1qQs1o9X_GctpXbG_s6m-76" value="延时3s发送" style="rounded=0;whiteSpace=wrap;html=1;" vertex="1" parent="1">
          <mxGeometry x="300" y="858" width="120" height="60" as="geometry" />
        </mxCell>
        <mxCell id="1qQs1o9X_GctpXbG_s6m-77" value="移除托管" style="rounded=0;whiteSpace=wrap;html=1;" vertex="1" parent="1">
          <mxGeometry x="-20" y="1140" width="900" height="60" as="geometry" />
        </mxCell>
        <mxCell id="1qQs1o9X_GctpXbG_s6m-80" value="" style="edgeStyle=segmentEdgeStyle;endArrow=classic;html=1;curved=0;rounded=0;endSize=8;startSize=8;exitX=0;exitY=0.5;exitDx=0;exitDy=0;entryX=0.5;entryY=0;entryDx=0;entryDy=0;" edge="1" parent="1" target="1qQs1o9X_GctpXbG_s6m-74">
          <mxGeometry width="50" height="50" relative="1" as="geometry">
            <mxPoint x="394" y="758" as="sourcePoint" />
            <mxPoint x="60" y="728" as="targetPoint" />
            <Array as="points">
              <mxPoint x="50" y="758" />
            </Array>
          </mxGeometry>
        </mxCell>
        <mxCell id="1qQs1o9X_GctpXbG_s6m-81" value="" style="endArrow=classic;html=1;rounded=0;entryX=0.425;entryY=-0.083;entryDx=0;entryDy=0;entryPerimeter=0;" edge="1" parent="1">
          <mxGeometry width="50" height="50" relative="1" as="geometry">
            <mxPoint x="201" y="758" as="sourcePoint" />
            <mxPoint x="201" y="860.02" as="targetPoint" />
          </mxGeometry>
        </mxCell>
        <mxCell id="1qQs1o9X_GctpXbG_s6m-82" value="" style="endArrow=classic;html=1;rounded=0;entryX=0.5;entryY=0;entryDx=0;entryDy=0;" edge="1" parent="1" target="1qQs1o9X_GctpXbG_s6m-76">
          <mxGeometry width="50" height="50" relative="1" as="geometry">
            <mxPoint x="360" y="758" as="sourcePoint" />
            <mxPoint x="211" y="870.02" as="targetPoint" />
          </mxGeometry>
        </mxCell>
        <mxCell id="1qQs1o9X_GctpXbG_s6m-83" value="" style="endArrow=classic;html=1;rounded=0;exitX=0.5;exitY=1;exitDx=0;exitDy=0;" edge="1" parent="1" source="1qQs1o9X_GctpXbG_s6m-74">
          <mxGeometry width="50" height="50" relative="1" as="geometry">
            <mxPoint x="211" y="768" as="sourcePoint" />
            <mxPoint x="49" y="1140" as="targetPoint" />
            <Array as="points">
              <mxPoint x="50" y="1028" />
            </Array>
          </mxGeometry>
        </mxCell>
        <mxCell id="1qQs1o9X_GctpXbG_s6m-84" value="" style="endArrow=classic;html=1;rounded=0;exitX=0.5;exitY=1;exitDx=0;exitDy=0;" edge="1" parent="1">
          <mxGeometry width="50" height="50" relative="1" as="geometry">
            <mxPoint x="203.5" y="918" as="sourcePoint" />
            <mxPoint x="204" y="1140" as="targetPoint" />
            <Array as="points">
              <mxPoint x="203.5" y="1025" />
            </Array>
          </mxGeometry>
        </mxCell>
        <mxCell id="1qQs1o9X_GctpXbG_s6m-85" value="" style="endArrow=classic;html=1;rounded=0;" edge="1" parent="1">
          <mxGeometry width="50" height="50" relative="1" as="geometry">
            <mxPoint x="361" y="920" as="sourcePoint" />
            <mxPoint x="361" y="1140" as="targetPoint" />
            <Array as="points">
              <mxPoint x="360.5" y="1015" />
            </Array>
          </mxGeometry>
        </mxCell>
        <mxCell id="1qQs1o9X_GctpXbG_s6m-87" value="随机命中策略" style="rhombus;whiteSpace=wrap;html=1;" vertex="1" parent="1">
          <mxGeometry x="414" y="580" width="80" height="80" as="geometry" />
        </mxCell>
        <mxCell id="1qQs1o9X_GctpXbG_s6m-88" value="" style="endArrow=classic;html=1;rounded=0;exitX=0.5;exitY=1;exitDx=0;exitDy=0;entryX=0.5;entryY=0;entryDx=0;entryDy=0;" edge="1" parent="1" source="1qQs1o9X_GctpXbG_s6m-87" target="1qQs1o9X_GctpXbG_s6m-72">
          <mxGeometry width="50" height="50" relative="1" as="geometry">
            <mxPoint x="470" y="740" as="sourcePoint" />
            <mxPoint x="520" y="690" as="targetPoint" />
          </mxGeometry>
        </mxCell>
        <mxCell id="1qQs1o9X_GctpXbG_s6m-90" value="否" style="edgeLabel;html=1;align=center;verticalAlign=middle;resizable=0;points=[];" vertex="1" connectable="0" parent="1qQs1o9X_GctpXbG_s6m-88">
          <mxGeometry x="-0.24" y="1" relative="1" as="geometry">
            <mxPoint as="offset" />
          </mxGeometry>
        </mxCell>
        <mxCell id="1qQs1o9X_GctpXbG_s6m-89" value="" style="endArrow=classic;html=1;rounded=0;entryX=0.5;entryY=0;entryDx=0;entryDy=0;" edge="1" parent="1">
          <mxGeometry width="50" height="50" relative="1" as="geometry">
            <mxPoint x="454" y="540" as="sourcePoint" />
            <mxPoint x="453.5" y="580" as="targetPoint" />
          </mxGeometry>
        </mxCell>
        <mxCell id="1qQs1o9X_GctpXbG_s6m-91" value="" style="endArrow=classic;html=1;rounded=0;exitX=1;exitY=0.5;exitDx=0;exitDy=0;entryX=-0.022;entryY=0.144;entryDx=0;entryDy=0;entryPerimeter=0;" edge="1" parent="1" target="1qQs1o9X_GctpXbG_s6m-92">
          <mxGeometry width="50" height="50" relative="1" as="geometry">
            <mxPoint x="514" y="511" as="sourcePoint" />
            <mxPoint x="640" y="510" as="targetPoint" />
          </mxGeometry>
        </mxCell>
        <mxCell id="1qQs1o9X_GctpXbG_s6m-92" value="通知池" style="rounded=0;whiteSpace=wrap;html=1;" vertex="1" parent="1">
          <mxGeometry x="650" y="450" width="90" height="430" as="geometry" />
        </mxCell>
        <mxCell id="1qQs1o9X_GctpXbG_s6m-93" value="" style="endArrow=classic;html=1;rounded=0;exitX=1.033;exitY=0.48;exitDx=0;exitDy=0;exitPerimeter=0;entryX=0;entryY=0.563;entryDx=0;entryDy=0;entryPerimeter=0;" edge="1" parent="1" source="1qQs1o9X_GctpXbG_s6m-92" target="1qQs1o9X_GctpXbG_s6m-66">
          <mxGeometry width="50" height="50" relative="1" as="geometry">
            <mxPoint x="730" y="740" as="sourcePoint" />
            <mxPoint x="780" y="690" as="targetPoint" />
          </mxGeometry>
        </mxCell>
        <mxCell id="1qQs1o9X_GctpXbG_s6m-94" value="立即重新请求" style="edgeLabel;html=1;align=center;verticalAlign=middle;resizable=0;points=[];" vertex="1" connectable="0" parent="1qQs1o9X_GctpXbG_s6m-93">
          <mxGeometry x="0.0148" y="1" relative="1" as="geometry">
            <mxPoint as="offset" />
          </mxGeometry>
        </mxCell>
        <mxCell id="1qQs1o9X_GctpXbG_s6m-95" value="" style="endArrow=classic;html=1;rounded=0;exitX=1;exitY=0.5;exitDx=0;exitDy=0;entryX=0.022;entryY=0.393;entryDx=0;entryDy=0;entryPerimeter=0;" edge="1" parent="1" target="1qQs1o9X_GctpXbG_s6m-92">
          <mxGeometry width="50" height="50" relative="1" as="geometry">
            <mxPoint x="494" y="619.5" as="sourcePoint" />
            <mxPoint x="628" y="620.5" as="targetPoint" />
          </mxGeometry>
        </mxCell>
        <mxCell id="1qQs1o9X_GctpXbG_s6m-97" value="" style="endArrow=classic;html=1;rounded=0;" edge="1" parent="1">
          <mxGeometry width="50" height="50" relative="1" as="geometry">
            <mxPoint x="800" y="660" as="sourcePoint" />
            <mxPoint x="800.5" y="1141" as="targetPoint" />
            <Array as="points">
              <mxPoint x="800" y="1016" />
            </Array>
          </mxGeometry>
        </mxCell>
        <mxCell id="1qQs1o9X_GctpXbG_s6m-98" value="移除" style="edgeLabel;html=1;align=center;verticalAlign=middle;resizable=0;points=[];" vertex="1" connectable="0" parent="1qQs1o9X_GctpXbG_s6m-97">
          <mxGeometry x="-0.0395" y="-3" relative="1" as="geometry">
            <mxPoint as="offset" />
          </mxGeometry>
        </mxCell>
        <mxCell id="1qQs1o9X_GctpXbG_s6m-99" value="冷启动" style="rounded=0;whiteSpace=wrap;html=1;" vertex="1" parent="1">
          <mxGeometry x="-430" y="360" width="120" height="60" as="geometry" />
        </mxCell>
        <mxCell id="1qQs1o9X_GctpXbG_s6m-100" value="" style="endArrow=classic;html=1;rounded=0;exitX=1;exitY=0.5;exitDx=0;exitDy=0;entryX=0;entryY=0.5;entryDx=0;entryDy=0;" edge="1" parent="1" source="1qQs1o9X_GctpXbG_s6m-99" target="1qQs1o9X_GctpXbG_s6m-1">
          <mxGeometry width="50" height="50" relative="1" as="geometry">
            <mxPoint x="-180" y="490" as="sourcePoint" />
            <mxPoint x="-130" y="440" as="targetPoint" />
          </mxGeometry>
        </mxCell>
        <mxCell id="1qQs1o9X_GctpXbG_s6m-101" value="进入前台" style="rounded=0;whiteSpace=wrap;html=1;" vertex="1" parent="1">
          <mxGeometry x="-430" y="510" width="120" height="60" as="geometry" />
        </mxCell>
        <mxCell id="1qQs1o9X_GctpXbG_s6m-104" value="压后台" style="rounded=0;whiteSpace=wrap;html=1;" vertex="1" parent="1">
          <mxGeometry x="-430" y="635" width="120" height="60" as="geometry" />
        </mxCell>
        <mxCell id="1qQs1o9X_GctpXbG_s6m-108" value="是否休眠" style="rhombus;whiteSpace=wrap;html=1;" vertex="1" parent="1">
          <mxGeometry x="-170" y="553" width="80" height="80" as="geometry" />
        </mxCell>
        <mxCell id="1qQs1o9X_GctpXbG_s6m-115" value="" style="edgeStyle=elbowEdgeStyle;elbow=horizontal;endArrow=classic;html=1;curved=0;rounded=0;endSize=8;startSize=8;exitX=0.5;exitY=0;exitDx=0;exitDy=0;" edge="1" parent="1" source="1qQs1o9X_GctpXbG_s6m-108">
          <mxGeometry width="50" height="50" relative="1" as="geometry">
            <mxPoint x="-86" y="593" as="sourcePoint" />
            <mxPoint x="394" y="510" as="targetPoint" />
            <Array as="points">
              <mxPoint x="-130" y="530" />
            </Array>
          </mxGeometry>
        </mxCell>
        <mxCell id="1qQs1o9X_GctpXbG_s6m-118" value="否" style="text;html=1;align=center;verticalAlign=middle;resizable=0;points=[];autosize=1;strokeColor=none;fillColor=none;" vertex="1" parent="1">
          <mxGeometry x="131" y="488" width="40" height="30" as="geometry" />
        </mxCell>
        <mxCell id="1qQs1o9X_GctpXbG_s6m-119" value="结束" style="shape=ext;double=1;rounded=0;whiteSpace=wrap;html=1;" vertex="1" parent="1">
          <mxGeometry x="-230" y="1500" width="1640" height="80" as="geometry" />
        </mxCell>
        <mxCell id="1qQs1o9X_GctpXbG_s6m-120" value="" style="endArrow=classic;html=1;rounded=0;exitX=0.5;exitY=1;exitDx=0;exitDy=0;entryX=0.065;entryY=-0.037;entryDx=0;entryDy=0;entryPerimeter=0;" edge="1" parent="1" source="1qQs1o9X_GctpXbG_s6m-108" target="1qQs1o9X_GctpXbG_s6m-119">
          <mxGeometry width="50" height="50" relative="1" as="geometry">
            <mxPoint x="-100" y="970" as="sourcePoint" />
            <mxPoint x="-50" y="920" as="targetPoint" />
          </mxGeometry>
        </mxCell>
        <mxCell id="1qQs1o9X_GctpXbG_s6m-121" value="是" style="edgeLabel;html=1;align=center;verticalAlign=middle;resizable=0;points=[];" vertex="1" connectable="0" parent="1qQs1o9X_GctpXbG_s6m-120">
          <mxGeometry x="-0.5486" relative="1" as="geometry">
            <mxPoint as="offset" />
          </mxGeometry>
        </mxCell>
        <mxCell id="1qQs1o9X_GctpXbG_s6m-122" value="" style="edgeStyle=elbowEdgeStyle;elbow=horizontal;endArrow=classic;html=1;curved=0;rounded=0;endSize=8;startSize=8;exitX=1;exitY=0.5;exitDx=0;exitDy=0;entryX=0;entryY=0.5;entryDx=0;entryDy=0;" edge="1" parent="1" source="1qQs1o9X_GctpXbG_s6m-104" target="1qQs1o9X_GctpXbG_s6m-108">
          <mxGeometry width="50" height="50" relative="1" as="geometry">
            <mxPoint x="-100" y="670" as="sourcePoint" />
            <mxPoint x="-50" y="620" as="targetPoint" />
          </mxGeometry>
        </mxCell>
        <mxCell id="1qQs1o9X_GctpXbG_s6m-123" value="休眠" style="edgeLabel;html=1;align=center;verticalAlign=middle;resizable=0;points=[];" vertex="1" connectable="0" parent="1qQs1o9X_GctpXbG_s6m-122">
          <mxGeometry x="-0.4245" y="1" relative="1" as="geometry">
            <mxPoint as="offset" />
          </mxGeometry>
        </mxCell>
        <mxCell id="1qQs1o9X_GctpXbG_s6m-124" value="" style="edgeStyle=elbowEdgeStyle;elbow=vertical;endArrow=classic;html=1;curved=0;rounded=0;endSize=8;startSize=8;exitX=0.992;exitY=0.367;exitDx=0;exitDy=0;exitPerimeter=0;entryX=0;entryY=0.5;entryDx=0;entryDy=0;" edge="1" parent="1" source="1qQs1o9X_GctpXbG_s6m-101" target="1qQs1o9X_GctpXbG_s6m-108">
          <mxGeometry width="50" height="50" relative="1" as="geometry">
            <mxPoint x="-100" y="670" as="sourcePoint" />
            <mxPoint x="-50" y="620" as="targetPoint" />
          </mxGeometry>
        </mxCell>
        <mxCell id="1qQs1o9X_GctpXbG_s6m-125" value="启动" style="text;html=1;align=center;verticalAlign=middle;resizable=0;points=[];autosize=1;strokeColor=none;fillColor=none;" vertex="1" parent="1">
          <mxGeometry x="-264" y="538" width="50" height="30" as="geometry" />
        </mxCell>
      </root>
    </mxGraphModel>
  </diagram>
  <diagram id="mzGSwSM7H3uvGoc3BxbA" name="第 2 页">
    <mxGraphModel dx="689" dy="443" grid="1" gridSize="10" guides="1" tooltips="1" connect="1" arrows="1" fold="1" page="1" pageScale="1" pageWidth="827" pageHeight="1169" math="0" shadow="0">
      <root>
        <mxCell id="0" />
        <mxCell id="1" parent="0" />
      </root>
    </mxGraphModel>
  </diagram>
</mxfile>
